<svg width="14" height="14" viewBox="0 0 14 14" fill="none" xmlns="http://www.w3.org/2000/svg">
<path fill-rule="evenodd" clip-rule="evenodd" d="M8.925 3.10127C8.925 1.97572 9.82603 1.06329 10.9375 1.06329C12.049 1.06329 12.95 1.97572 12.95 3.10127V6.55696C12.95 6.85058 13.1851 7.08861 13.475 7.08861C13.7649 7.08861 14 6.85058 14 6.55696V3.10127C14 1.38848 12.6289 0 10.9375 0C9.24613 0 7.875 1.38848 7.875 3.10127V5.49367H3.30301C2.83165 5.49366 2.44615 5.49366 2.13285 5.51958C1.80857 5.54641 1.51569 5.60364 1.24217 5.74477C0.814103 5.96564 0.466073 6.31808 0.247961 6.75157C0.108596 7.02855 0.0520814 7.32513 0.0255865 7.65352C-1.05742e-05 7.97078 -5.73628e-06 8.36115 1.79092e-07 8.83848V10.6552C-5.73628e-06 11.1325 -1.05724e-05 11.5229 0.0255865 11.8401C0.0520814 12.1685 0.108596 12.4651 0.247961 12.7421C0.466073 13.1756 0.814103 13.528 1.24217 13.7489C1.51569 13.89 1.80857 13.9473 2.13285 13.9741C2.44614 14 2.83164 14 3.30299 14H7.89701C8.36837 14 8.75386 14 9.06715 13.9741C9.39143 13.9473 9.68431 13.89 9.95783 13.7489C10.3859 13.528 10.7339 13.1756 10.952 12.7421C11.0914 12.4651 11.1479 12.1685 11.1744 11.8401C11.2 11.5229 11.2 11.1326 11.2 10.6553L11.2 8.26026C11.2002 7.83298 11.2003 7.52612 11.1371 7.25966C10.9374 6.41728 10.2879 5.75956 9.45609 5.55732C9.29891 5.51911 9.12749 5.50377 8.925 5.49765V3.10127ZM5.6002 11.1642C6.37339 11.1642 7.0002 10.5294 7.0002 9.74644C7.0002 8.96345 6.37339 8.32872 5.6002 8.32872C4.827 8.32872 4.2002 8.96345 4.2002 9.74644C4.2002 10.5294 4.827 11.1642 5.6002 11.1642Z" fill="white"/>
</svg>
